<svg width="3957" height="3956" xmlns="http://www.w3.org/2000/svg" xmlns:xlink="http://www.w3.org/1999/xlink" overflow="hidden"><defs><clipPath id="clip0"><rect x="-1901" y="-889" width="3957" height="3956"/></clipPath></defs><g clip-path="url(#clip0)" transform="translate(1901 889)"><path d="M-508.582-800.786-1065.53 2701.64-1181.01 2615.31C-1620.73 2252.5-1901 1703.44-1901 1088.93-1901 201.312-1316.23-549.759-510.845-800.205ZM-363.533-838.074-939.41 2783.41-988.676 2753.49-419.861-823.594ZM-89.3795-880.71-692.043 2909.23-771.026 2872.37-175.744-871.147-124.79-878.922ZM122.027-886.887 279.79-878.922C1277.46-777.625 2056 64.7548 2056 1088.93 2056 2181.39 1170.2 3067 77.5001 3067-114.575 3067-300.258 3039.64-475.86 2988.59L-493.292 2982.64ZM74.8328-889-538.373 2967.24-612.164 2942.03-3.59583-885.04Z" fill="#FFFFFF" fill-rule="evenodd" fill-opacity="0.501961"/><path d="M-1361.61 1087.45-533.104 935.622-968.536 1263.38C-1016.62 1311.47-982.56 1393.68-914.584 1393.68L147.76 1393.68C102.729 1267.72 77.4939 1133.78 77.4939 995.838L77.4939 794.147-493.653 376.165C-607.281 300.394-757.402 309.317-861.252 398.066L-1421.28 953.181C-1480.34 1002.47-1437.74 1098.33-1361.61 1087.45ZM1294.83 1250.16 814.647 1010.1C737.097 971.322 688.101 892.039 688.091 805.313L688.091 630.247 993.39 630.247 1127.39 738.225C1156.01 766.854 1194.84 782.935 1235.34 782.935L1383.08 782.935C1440.89 782.929 1493.75 750.254 1519.6 698.527L1587.86 561.967C1613.71 510.239 1608.14 448.344 1573.46 402.074L1217.93-72.1163C1189.07-110.574 1143.85-133 1095.81-133L-36.8975-133C-70.9093-133-87.9396-92.1082-63.8977-68.0605L230.143 172.184-54.0704 290.708C-82.2155 304.784-82.2155 344.912-54.0704 358.988L230.143 477.56 230.143 995.838C230.143 1339.77 402.017 1660.93 688.091 1851.75-244.93 1884.24-955.561 2047.43-1382.69 2142.38-1421.43 2150.97-1449 2185.37-1449 2225.07-1449 2271.83-1411.08 2310-1364.28 2310L1016.48 2310C1318.39 2310.05 1587.05 2083.07 1603.18 1781.51 1615.2 1555.91 1494.75 1350.17 1294.83 1250.16ZM884.532 183.111 1102.3 237.553C1089.18 289.611 1042.81 327.687 987.19 324.681 925.366 321.293 863.877 264.894 884.532 183.111Z" fill="#FFFFFF" fill-rule="evenodd"/></g></svg>