<svg id="Layer_3" enable-background="new 0 0 64 64" height="512" viewBox="0 0 64 64" width="512" xmlns="http://www.w3.org/2000/svg"><path d="m2 11h60v2h-60z" fill="#4d5d7a"/><path d="m54 4h4v16h-4z" fill="#e47c6e"/><path d="m46 8h4v8h-4z" fill="#78b75b"/><path d="m6 4h4v16h-4z" fill="#e47c6e" transform="matrix(-1 0 0 -1 16 24)"/><path d="m14 8h4v8h-4z" fill="#78b75b" transform="matrix(-1 0 0 -1 32 24)"/><circle cx="32" cy="12" fill="#f5b953" r="10"/><circle cx="32" cy="12" fill="#f9d18b" r="7"/><path d="m4 30h56v32h-56z" fill="#4d5d7a"/><path d="m4 52.221c4.632 2.39 10.116 3.779 16 3.779 16.569 0 30-10.969 30-24.5 0-.504-.025-1.003-.061-1.5h-45.939z" fill="#8892a0"/><path d="m4 48h56v4h-56z" fill="#976947"/><path d="m41 62v-16h-18v16" fill="#fff"/><path d="m9 34h6v6h-6z" fill="#fff"/><path d="m19 34h6v6h-6z" fill="#fff"/><path d="m29 34h6v6h-6z" fill="#fff"/><path d="m39 34h6v6h-6z" fill="#fff"/><path d="m49 34h6v6h-6z" fill="#fff"/><path d="m2 26h60v4h-60z" fill="#976947"/><path d="m31 46h2v16h-2z" fill="#c18e59"/><g fill="#8892a0"><path d="m47 16h2v3h-2z"/><path d="m47 5h2v3h-2z"/><path d="m55 20h2v3h-2z"/><path d="m55 1h2v3h-2z"/><path d="m15 16h2v3h-2z"/><path d="m15 5h2v3h-2z"/><path d="m7 20h2v3h-2z"/><path d="m7 1h2v3h-2z"/></g><path d="m32 11c-1.103 0-2-.897-2-2s.897-2 2-2 2 .897 2 2h2c0-1.858-1.28-3.411-3-3.858v-3.142h-2v3.142c-1.72.447-3 2-3 3.858 0 2.206 1.794 4 4 4 1.103 0 2 .897 2 2s-.897 2-2 2-2-.897-2-2h-2c0 1.858 1.28 3.411 3 3.858v3.142h2v-3.142c1.72-.447 3-2 3-3.858 0-2.206-1.794-4-4-4z" fill="#4d5d7a"/></svg>